<svg xmlns="http://www.w3.org/2000/svg" width="1280" height="720" viewBox="0 0 1280 720" role="img" aria-label="Terminal Shortcut Buttons Command Deck preview">
  <defs>
    <linearGradient id="bg" x1="0" y1="0" x2="1" y2="1">
      <stop offset="0" stop-color="#111827"/>
      <stop offset="1" stop-color="#0b1220"/>
    </linearGradient>
    <linearGradient id="blue" x1="0" y1="0" x2="1" y2="1">
      <stop offset="0" stop-color="#3b82f6"/>
      <stop offset="1" stop-color="#1d4ed8"/>
    </linearGradient>
    <linearGradient id="teal" x1="0" y1="0" x2="1" y2="1">
      <stop offset="0" stop-color="#14b8a6"/>
      <stop offset="1" stop-color="#0f766e"/>
    </linearGradient>
    <linearGradient id="violet" x1="0" y1="0" x2="1" y2="1">
      <stop offset="0" stop-color="#8b5cf6"/>
      <stop offset="1" stop-color="#6d28d9"/>
    </linearGradient>
  </defs>
  <rect width="1280" height="720" fill="url(#bg)"/>
  <rect x="54" y="52" width="1172" height="616" rx="18" fill="#151b27" stroke="#263244" stroke-width="2"/>
  <rect x="54" y="52" width="1172" height="54" rx="18" fill="#0f172a"/>
  <text x="86" y="87" fill="#f9fafb" font-family="Segoe UI, Arial, sans-serif" font-size="20" font-weight="700">Terminal Shortcut Buttons</text>
  <rect x="936" y="68" width="76" height="24" rx="6" fill="#374151"/>
  <text x="956" y="85" fill="#e5e7eb" font-family="Segoe UI, Arial, sans-serif" font-size="12">Refresh</text>
  <rect x="1022" y="68" width="92" height="24" rx="6" fill="#374151"/>
  <text x="1041" y="85" fill="#e5e7eb" font-family="Segoe UI, Arial, sans-serif" font-size="12">Mini Mode</text>
  <rect x="1124" y="68" width="86" height="24" rx="6" fill="#2563eb"/>
  <text x="1145" y="85" fill="#ffffff" font-family="Segoe UI, Arial, sans-serif" font-size="12">Edit List</text>
  <g transform="translate(86 138)">
    <rect width="348" height="172" rx="12" fill="url(#blue)"/>
    <text x="22" y="38" fill="#ffffff" font-family="Segoe UI, Arial, sans-serif" font-size="24" font-weight="700">Dev</text>
    <rect x="254" y="21" width="70" height="24" rx="12" fill="#ffffff" opacity=".18"/>
    <text x="268" y="38" fill="#ffffff" font-family="Segoe UI, Arial, sans-serif" font-size="13">Dev Server</text>
    <text x="22" y="77" fill="#dbeafe" font-family="Segoe UI, Arial, sans-serif" font-size="17">Start the local development server.</text>
    <rect x="22" y="111" width="304" height="38" rx="8" fill="#111827" opacity=".38"/>
    <text x="36" y="136" fill="#ffffff" font-family="Consolas, monospace" font-size="16">npm run dev</text>
  </g>
  <g transform="translate(466 138)">
    <rect width="348" height="172" rx="12" fill="url(#teal)"/>
    <text x="22" y="38" fill="#ffffff" font-family="Segoe UI, Arial, sans-serif" font-size="24" font-weight="700">Build</text>
    <rect x="278" y="21" width="46" height="24" rx="12" fill="#ffffff" opacity=".18"/>
    <text x="290" y="38" fill="#ffffff" font-family="Segoe UI, Arial, sans-serif" font-size="13">Build</text>
    <text x="22" y="77" fill="#ccfbf1" font-family="Segoe UI, Arial, sans-serif" font-size="17">Run the production build.</text>
    <rect x="22" y="111" width="304" height="38" rx="8" fill="#111827" opacity=".38"/>
    <text x="36" y="136" fill="#ffffff" font-family="Consolas, monospace" font-size="16">npm run build</text>
  </g>
  <g transform="translate(846 138)">
    <rect width="348" height="172" rx="12" fill="url(#violet)"/>
    <text x="22" y="38" fill="#ffffff" font-family="Segoe UI, Arial, sans-serif" font-size="24" font-weight="700">Git</text>
    <rect x="288" y="21" width="36" height="24" rx="12" fill="#ffffff" opacity=".18"/>
    <text x="301" y="38" fill="#ffffff" font-family="Segoe UI, Arial, sans-serif" font-size="13">Git</text>
    <text x="22" y="77" fill="#ede9fe" font-family="Segoe UI, Arial, sans-serif" font-size="17">Show current repository status.</text>
    <rect x="22" y="111" width="304" height="38" rx="8" fill="#111827" opacity=".38"/>
    <text x="36" y="136" fill="#ffffff" font-family="Consolas, monospace" font-size="16">git status</text>
  </g>
  <g transform="translate(86 344)">
    <rect width="348" height="172" rx="12" fill="#b45309"/>
    <text x="22" y="38" fill="#ffffff" font-family="Segoe UI, Arial, sans-serif" font-size="24" font-weight="700">Test</text>
    <text x="22" y="77" fill="#ffedd5" font-family="Segoe UI, Arial, sans-serif" font-size="17">Run project tests.</text>
    <rect x="22" y="111" width="304" height="38" rx="8" fill="#111827" opacity=".38"/>
    <text x="36" y="136" fill="#ffffff" font-family="Consolas, monospace" font-size="16">npm test</text>
  </g>
  <g transform="translate(466 344)">
    <rect width="348" height="172" rx="12" fill="#be123c"/>
    <text x="22" y="38" fill="#ffffff" font-family="Segoe UI, Arial, sans-serif" font-size="24" font-weight="700">Deploy</text>
    <text x="22" y="77" fill="#ffe4e6" font-family="Segoe UI, Arial, sans-serif" font-size="17">Deploy the current project.</text>
    <rect x="22" y="111" width="304" height="38" rx="8" fill="#111827" opacity=".38"/>
    <text x="36" y="136" fill="#ffffff" font-family="Consolas, monospace" font-size="16">npm run deploy</text>
  </g>
</svg>
